<svg width="20" height="20" viewBox="0 0 20 20" fill="none" xmlns="http://www.w3.org/2000/svg">
<path d="M15.0292 3.33333H1.66675V8.28166H2.95425L4.68091 5.65666L6.22425 8.57333L6.89675 7.55166H10.4226C10.7329 6.63464 11.3851 5.87272 12.2433 5.42469C13.1015 4.97666 14.0994 4.87706 15.0292 5.14666V3.33333ZM10.2559 9.21916H7.79508L6.06758 11.8417L4.52508 8.92499L3.85258 9.94666H1.66675V14.1667H7.51425V15H5.84258C5.62157 15 5.40961 15.0878 5.25333 15.2441C5.09705 15.4004 5.00925 15.6123 5.00925 15.8333C5.00925 16.0543 5.09705 16.2663 5.25333 16.4226C5.40961 16.5789 5.62157 16.6667 5.84258 16.6667H10.8534C11.0744 16.6667 11.2864 16.5789 11.4427 16.4226C11.599 16.2663 11.6867 16.0543 11.6867 15.8333C11.6867 15.6123 11.599 15.4004 11.4427 15.2441C11.2864 15.0878 11.0744 15 10.8534 15H9.18092V14.1667H15.0292V12.3533C14.6898 12.4511 14.3383 12.5005 13.9851 12.5C13.0708 12.5003 12.1877 12.1673 11.5013 11.5634C10.8148 10.9595 10.3721 10.126 10.2559 9.21916Z" fill="#1E1C19"/>
<path fill-rule="evenodd" clip-rule="evenodd" d="M16.5559 10.1383C16.7956 9.69348 16.9157 9.19405 16.9046 8.68887C16.8934 8.18369 16.7514 7.69005 16.4923 7.25622C16.2332 6.82238 15.866 6.4632 15.4265 6.2138C14.9871 5.96439 14.4904 5.8333 13.9851 5.83333C13.6016 5.83289 13.2218 5.90799 12.8674 6.05433C12.513 6.20067 12.1908 6.41538 11.9194 6.68622C11.6479 6.95706 11.4325 7.27871 11.2853 7.63281C11.1382 7.98692 11.0622 8.36654 11.0618 8.75C11.0618 10.3608 12.3701 11.6667 13.9851 11.6667C14.471 11.6675 14.9493 11.5469 15.3768 11.3158L17.1526 13.0883L18.3334 11.9117L16.5559 10.1383ZM13.9851 10C14.6818 10 15.2409 9.43666 15.2409 8.75C15.2409 8.06333 14.6834 7.5 13.9851 7.5C13.2868 7.5 12.7284 8.06333 12.7284 8.75C12.7284 9.43666 13.2876 10 13.9851 10Z" fill="#1E1C19"/>
</svg>
