<svg width="20" height="20" viewBox="0 0 20 20" fill="none" xmlns="http://www.w3.org/2000/svg">
<path d="M13.3333 14.1667H7.8125C7.49306 14.1667 7.23278 14.2639 7.03167 14.4583C6.83056 14.6528 6.70889 14.875 6.66667 15.125C6.62444 15.375 6.66278 15.6181 6.78167 15.8542C6.90056 16.0903 7.11222 16.2639 7.41667 16.375L12.1875 18.2708C12.3264 18.3264 12.4619 18.3439 12.5942 18.3233C12.7264 18.3028 12.8478 18.2575 12.9583 18.1875C13.0689 18.1175 13.1592 18.0239 13.2292 17.9067C13.2992 17.7894 13.3339 17.6539 13.3333 17.5V14.1667ZM8.33333 1.66667C9.25 1.66667 10.0347 1.99306 10.6875 2.64584C11.3403 3.29862 11.6667 4.08334 11.6667 5C11.6667 5.91667 11.3403 6.70139 10.6875 7.35417C10.0347 8.00695 9.25 8.33334 8.33333 8.33334C7.41667 8.33334 6.63194 8.00695 5.97917 7.35417C5.32639 6.70139 5 5.91667 5 5C5 4.08334 5.32639 3.29862 5.97917 2.64584C6.63194 1.99306 7.41667 1.66667 8.33333 1.66667ZM16.0208 9.16667C16.4236 9.16667 16.7708 9.30195 17.0625 9.5725C17.3542 9.84306 17.5 10.18 17.5 10.5833C17.5 10.9028 17.4097 11.1944 17.2292 11.4583C17.0486 11.7222 16.8056 11.9097 16.5 12.0208L15 12.5H7.8125C7.02083 12.5 6.35417 12.7708 5.8125 13.3125C5.27083 13.8542 5 14.5208 5 15.3125C5 15.5625 5.03472 15.8022 5.10417 16.0317C5.17361 16.2611 5.26389 16.4728 5.375 16.6667H2.5V13.3333C2.5 12.1806 2.90639 11.1981 3.71917 10.3858C4.53194 9.57362 5.51444 9.16723 6.66667 9.16667H16.0208Z" fill="black"/>
</svg>
