<svg width="24" height="24" viewBox="0 0 24 24" fill="none" xmlns="http://www.w3.org/2000/svg">
<g clip-path="url(#clip0_1669_683)">
<path d="M17.1301 14.2351C16.8451 14.1001 15.4801 13.4251 15.2251 13.3201C14.9701 13.2151 14.7901 13.1851 14.5951 13.4701C14.4001 13.7551 13.8751 14.3701 13.7101 14.5651C13.5451 14.7601 13.3951 14.7751 13.1101 14.5651C12.2911 14.2374 11.535 13.7705 10.8751 13.1851C10.2782 12.6214 9.77218 11.9686 9.37509 11.2501C9.21009 10.9801 9.37509 10.8301 9.49509 10.6801C9.61509 10.5301 9.76509 10.3651 9.91509 10.2001C10.0246 10.0573 10.1154 9.90099 10.1851 9.73506C10.2223 9.65786 10.2416 9.57326 10.2416 9.48756C10.2416 9.40185 10.2223 9.31726 10.1851 9.24006C10.1851 9.10506 9.55509 7.74006 9.31509 7.18506C9.07509 6.63006 8.86509 6.70506 8.70009 6.70506H8.10009C7.81427 6.7162 7.54454 6.84027 7.35009 7.05006C7.03623 7.34956 6.78762 7.71068 6.61984 8.11076C6.45207 8.51084 6.36874 8.94127 6.37509 9.37506C6.45271 10.4398 6.8442 11.4577 7.50009 12.3001C8.70411 14.0911 10.353 15.5384 12.2851 16.5001C12.9451 16.7851 13.4551 16.9501 13.8601 17.0851C14.4285 17.2586 15.03 17.2946 15.6151 17.1901C16.0037 17.1112 16.372 16.9534 16.6972 16.7263C17.0223 16.4992 17.2973 16.2078 17.5051 15.8701C17.6781 15.453 17.7351 14.9969 17.6701 14.5501C17.5951 14.4451 17.4151 14.3701 17.1301 14.2351Z" fill="#1E1C19"/>
<path d="M19.935 4.01989C18.8976 2.97272 17.6611 2.14388 16.2983 1.58226C14.9355 1.02065 13.474 0.737628 12 0.749894C10.0475 0.760112 8.13174 1.28244 6.44422 2.26472C4.7567 3.24699 3.35643 4.65483 2.38327 6.34762C1.4101 8.04041 0.898104 9.9589 0.89841 11.9115C0.898716 13.8641 1.41131 15.7824 2.38501 17.4749L0.88501 23.2499L6.79501 21.7499C8.42886 22.639 10.2599 23.1032 12.12 23.0999H12C14.2169 23.1143 16.3878 22.4682 18.236 21.2439C20.0842 20.0195 21.5259 18.2725 22.3771 16.2255C23.2284 14.1786 23.4508 11.9244 23.0158 9.75061C22.5809 7.57677 21.5084 5.58173 19.935 4.01989ZM12 21.1799C10.3356 21.1827 8.70201 20.7315 7.27501 19.8749L6.94501 19.6799L3.43501 20.5949L4.36501 17.1749L4.15501 16.8299C2.95704 14.9006 2.50893 12.5988 2.89568 10.361C3.28244 8.12326 4.47716 6.10532 6.25316 4.69007C8.02916 3.27482 10.2629 2.56072 12.5305 2.68327C14.7981 2.80582 16.9419 3.75648 18.555 5.35489C19.4198 6.21273 20.1053 7.23411 20.5714 8.3595C21.0375 9.48489 21.275 10.6918 21.27 11.9099C21.266 14.3672 20.2881 16.7228 18.5505 18.4604C16.8129 20.198 14.4573 21.1759 12 21.1799Z" fill="#1E1C19"/>
</g>
<defs>
<clipPath id="clip0_1669_683">
<rect width="24" height="24" fill="white"/>
</clipPath>
</defs>
</svg>
