<svg width="20" height="20" viewBox="0 0 20 20" fill="none" xmlns="http://www.w3.org/2000/svg">
<path d="M11.4444 4.04625C11.4621 4.02353 11.4701 3.99471 11.4666 3.96612C11.4631 3.93753 11.4484 3.9115 11.4257 3.89375H11.4244L11.4232 3.8925L11.4201 3.89C11.4035 3.87792 11.3864 3.86665 11.3688 3.85625C11.1731 3.74117 10.9447 3.69435 10.7194 3.72312C10.705 3.72469 10.6911 3.72912 10.6785 3.73614C10.6658 3.74316 10.6547 3.75264 10.6457 3.76402C10.6368 3.7754 10.6302 3.78845 10.6264 3.80241C10.6225 3.81636 10.6215 3.83095 10.6234 3.8453C10.6253 3.85965 10.63 3.87349 10.6373 3.88599C10.6446 3.8985 10.6543 3.90942 10.6658 3.91813C10.6774 3.92683 10.6906 3.93314 10.7046 3.93668C10.7186 3.94022 10.7332 3.94092 10.7476 3.93875C10.9355 3.91551 11.1256 3.95862 11.2851 4.06063L11.2913 4.065L11.2926 4.06562C11.3153 4.08307 11.344 4.09082 11.3725 4.08719C11.4009 4.08356 11.4268 4.06885 11.4444 4.04625ZM8.67506 4.10875L8.68131 4.10375L8.71194 4.085C8.87674 3.98984 9.06807 3.951 9.25694 3.97438C9.28501 3.97698 9.313 3.96858 9.335 3.95094C9.357 3.93331 9.37129 3.90782 9.37486 3.87985C9.37842 3.85188 9.37099 3.82362 9.35412 3.80103C9.33725 3.77843 9.31226 3.76328 9.28444 3.75875C9.02572 3.72639 8.76399 3.78805 8.54694 3.9325L8.54381 3.935L8.54256 3.93625C8.52229 3.95451 8.50962 3.97973 8.50707 4.00689C8.50452 4.03406 8.51227 4.06119 8.5288 4.08291C8.54532 4.10462 8.5694 4.11933 8.59626 4.12412C8.62312 4.12891 8.6508 4.12342 8.67381 4.10875M8.69381 4.3C8.70366 4.29261 8.71487 4.28724 8.72679 4.28418C8.73872 4.28113 8.75113 4.28045 8.76332 4.28219C8.77551 4.28393 8.78723 4.28806 8.79783 4.29433C8.80842 4.3006 8.81767 4.3089 8.82506 4.31875C8.89194 4.40937 9.00944 4.46875 9.14069 4.46875C9.27194 4.46875 9.38944 4.40937 9.45569 4.31875C9.47052 4.29869 9.49272 4.28535 9.51739 4.28166C9.54206 4.27797 9.56719 4.28423 9.58725 4.29906C9.60731 4.3139 9.62065 4.33609 9.62434 4.36077C9.62803 4.38544 9.62177 4.41057 9.60694 4.43063C9.55195 4.50172 9.48123 4.5591 9.40033 4.59824C9.31943 4.63739 9.23056 4.65725 9.14069 4.65625C9.05082 4.65725 8.96194 4.63739 8.88104 4.59824C8.80014 4.5591 8.72942 4.50172 8.67444 4.43063C8.66711 4.4207 8.66182 4.40943 8.65887 4.39745C8.65591 4.38548 8.65534 4.37304 8.6572 4.36085C8.65906 4.34866 8.6633 4.33695 8.66969 4.3264C8.67608 4.31585 8.68449 4.30667 8.69444 4.29938M9.87381 4.48L9.69631 5.17375C9.65881 5.3175 9.75006 5.46125 9.86819 5.46125H10.1319C10.2551 5.46125 10.3413 5.3175 10.3038 5.17375L10.1263 4.48C10.0888 4.33 9.91131 4.33 9.87381 4.48ZM10.0001 5.9325C9.80131 5.9325 9.62006 5.88063 9.46194 5.79C9.40944 5.7575 9.35069 5.82875 9.38569 5.88063C9.51444 6.10125 9.74256 6.25 10.0001 6.25C10.2576 6.25 10.4857 6.10125 10.6144 5.88063C10.6494 5.8225 10.5907 5.7575 10.5382 5.79C10.3747 5.88448 10.1889 5.93367 10.0001 5.9325ZM10.4126 4.3C10.4224 4.29261 10.4336 4.28724 10.4455 4.28418C10.4575 4.28113 10.4699 4.28045 10.4821 4.28219C10.4943 4.28393 10.506 4.28806 10.5166 4.29433C10.5272 4.3006 10.5364 4.3089 10.5438 4.31875C10.6107 4.40937 10.7282 4.46875 10.8594 4.46875C10.9907 4.46875 11.1082 4.40937 11.1744 4.31875C11.1893 4.29869 11.2115 4.28535 11.2361 4.28166C11.2608 4.27797 11.2859 4.28423 11.306 4.29906C11.3261 4.3139 11.3394 4.33609 11.3431 4.36077C11.3468 4.38544 11.3405 4.41057 11.3257 4.43063C11.2707 4.50172 11.2 4.5591 11.1191 4.59824C11.0382 4.63739 10.9493 4.65725 10.8594 4.65625C10.7696 4.65725 10.6807 4.63739 10.5998 4.59824C10.5189 4.5591 10.4482 4.50172 10.3932 4.43063C10.3859 4.4207 10.3806 4.40943 10.3776 4.39745C10.3747 4.38548 10.3741 4.37304 10.376 4.36085C10.3778 4.34866 10.3821 4.33695 10.3884 4.3264C10.3948 4.31585 10.4032 4.30667 10.4132 4.29938" fill="black"/>
<path d="M13.1439 7.58125C13.4692 7.27067 13.6775 6.85748 13.7339 6.41125C13.7742 6.09727 13.7379 5.77819 13.6282 5.48125C13.8002 5.01251 13.7906 4.4964 13.6014 4.03437C13.5556 3.90873 13.4925 3.79008 13.4139 3.68187C13.3415 3.56655 13.3033 3.43304 13.3039 3.29688C13.3045 2.79994 13.1202 2.32054 12.7868 1.95209C12.4533 1.58363 11.9946 1.35251 11.5001 1.30375C11.3126 1.09064 11.0818 0.919895 10.8232 0.802865C10.5646 0.685835 10.284 0.625203 10.0001 0.625C9.71623 0.625203 9.43565 0.685835 9.17703 0.802865C8.9184 0.919895 8.68764 1.09064 8.50011 1.30375C8.00535 1.34984 7.54581 1.57958 7.21205 1.9477C6.87829 2.31582 6.69453 2.79561 6.69698 3.2925C6.69761 3.43438 6.65698 3.57313 6.58011 3.69187C6.40838 3.95307 6.30027 4.25089 6.26446 4.56142C6.22864 4.87196 6.26611 5.18656 6.37386 5.48C6.24041 5.83911 6.21499 6.22943 6.30073 6.60281C6.38647 6.9762 6.57962 7.31633 6.85636 7.58125C6.06636 8.39751 5.62481 9.48905 5.62511 10.625V11.0312C5.62511 11.0444 5.62511 11.0562 5.57761 11.1675V11.1737L5.57386 11.1825C5.54769 11.243 5.52392 11.3045 5.50261 11.3669V11.3713C5.40698 11.5963 5.26386 11.7987 5.08261 11.9644C4.81511 12.2285 4.53469 12.4785 4.24136 12.7144L4.17886 12.7681L4.17073 12.775L4.16386 12.7812C4.03261 12.89 3.89886 13.0006 3.77073 13.1125L3.49761 13.0675C3.36434 13.0455 3.22783 13.0536 3.09811 13.0913C2.96838 13.1289 2.84873 13.1951 2.74792 13.285C2.6471 13.3749 2.5677 13.4862 2.51552 13.6108C2.46334 13.7354 2.43971 13.8701 2.44636 14.005C2.30642 14.056 2.18221 14.1426 2.08597 14.2562C1.98974 14.3699 1.92481 14.5067 1.89761 14.6531V14.6731C1.87511 14.8156 1.88761 14.9606 1.93386 15.0975C1.9036 15.2503 1.91528 15.4084 1.96766 15.5551C2.02004 15.7018 2.11116 15.8316 2.23136 15.9306C2.2959 16.0625 2.39281 16.1759 2.51303 16.2601C2.63326 16.3444 2.77288 16.3968 2.91886 16.4125C3.00469 16.4233 3.09073 16.4281 3.17698 16.4269C3.23323 16.4594 3.29198 16.4852 3.35323 16.5044C3.5368 16.9427 3.83486 17.3236 4.2162 17.6072C4.59753 17.8908 5.04811 18.0666 5.52073 18.1162H5.53136C5.56886 18.1238 5.60448 18.1275 5.62823 18.13L5.63573 18.1306C5.64273 18.384 5.72464 18.6297 5.87113 18.8366C6.01761 19.0435 6.2221 19.2024 6.4588 19.2932C6.69549 19.384 6.95378 19.4027 7.20106 19.3468C7.44835 19.2909 7.67354 19.1631 7.84823 18.9794L8.60136 18.1812C8.61094 18.1708 8.6214 18.1612 8.63261 18.1525C9.28261 18.1488 9.92636 18.1431 10.4307 18.1388L10.6107 18.1375L11.3464 18.125L11.3739 18.1444C11.3864 18.1531 11.3974 18.1631 11.407 18.1744L12.157 18.9725C12.3316 19.1582 12.5576 19.2878 12.8061 19.3446C13.0546 19.4014 13.3144 19.383 13.5524 19.2916C13.7904 19.2002 13.9958 19.0401 14.1424 18.8315C14.2891 18.623 14.3703 18.3755 14.3757 18.1206C14.8693 18.0903 15.3446 17.9224 15.7477 17.636C16.1509 17.3496 16.4658 16.9561 16.657 16.5C16.7187 16.4802 16.7782 16.454 16.8345 16.4219C16.9207 16.4231 17.0068 16.4183 17.0926 16.4075C17.2386 16.3918 17.3782 16.3394 17.4984 16.2551C17.6187 16.1709 17.7156 16.0575 17.7801 15.9256C17.8976 15.8278 17.9873 15.7007 18.0399 15.5572C18.0926 15.4136 18.1065 15.2587 18.0801 15.1081C18.0801 15.1031 18.0793 15.0979 18.0776 15.0925C18.1245 14.9563 18.137 14.8106 18.1139 14.6681V14.6481C18.0864 14.5014 18.0211 14.3644 17.9244 14.2507C17.8277 14.1371 17.703 14.0506 17.5626 14C17.5659 13.9375 17.5624 13.875 17.552 13.8125C17.5332 13.6948 17.4914 13.5819 17.4289 13.4804C17.3663 13.3789 17.2844 13.2908 17.1876 13.2211C17.0909 13.1514 16.9814 13.1015 16.8653 13.0743C16.7493 13.0471 16.629 13.0431 16.5114 13.0625L16.2376 13.1075C16.1201 13.0054 16.0012 12.9046 15.8807 12.805L15.8382 12.77L15.8301 12.7631L15.7676 12.7094C15.4748 12.4736 15.1941 12.2233 14.9264 11.9594C14.7449 11.7945 14.6016 11.5921 14.5064 11.3663V11.3619C14.485 11.2995 14.4613 11.238 14.4351 11.1775L14.4314 11.1688V11.1625C14.3751 11.0563 14.3751 11.0444 14.3751 11.0312V10.625C14.3767 9.48879 13.935 8.39678 13.1439 7.58125ZM12.5001 7.99062C12.5401 7.97479 12.5797 7.95813 12.6189 7.94063C12.9769 8.28999 13.2615 8.70747 13.4558 9.16848C13.6501 9.62949 13.7501 10.1247 13.7501 10.625V11.0294C13.7545 11.1625 13.7876 11.2931 13.8476 11.4125C13.8684 11.4608 13.888 11.5108 13.9064 11.5625C14.1726 12.1189 14.5763 12.5982 15.0795 12.955L15.107 12.9788L15.3645 13.1938L15.427 13.2469L15.4832 13.2944L15.4957 13.305C15.5933 13.3862 15.6902 13.4683 15.7864 13.5512L15.827 13.5869L15.8426 13.6C15.9093 13.6562 15.9744 13.7143 16.0376 13.7744L16.1489 13.7563L16.4145 13.7125L16.4964 13.6994L16.6026 13.6819H16.6114C16.6475 13.6759 16.6845 13.6771 16.7202 13.6855C16.7559 13.6939 16.7896 13.7092 16.8193 13.7306C16.8491 13.7521 16.8743 13.7792 16.8935 13.8104C16.9127 13.8416 16.9256 13.8763 16.9314 13.9125C16.9339 13.9356 16.9339 13.9588 16.9314 13.9819C16.9273 14.0446 16.9019 14.1041 16.8594 14.1503C16.8169 14.1966 16.7598 14.2269 16.6976 14.2362H16.692L16.592 14.2537C16.6037 14.2692 16.6149 14.285 16.6257 14.3013L16.632 14.31C16.6541 14.3433 16.6739 14.3787 16.6914 14.4163C16.669 14.4026 16.6475 14.3876 16.627 14.3713C16.623 14.3672 16.6183 14.3641 16.613 14.3621C16.6078 14.3601 16.6021 14.3592 16.5965 14.3596C16.5909 14.3599 16.5854 14.3615 16.5805 14.3641C16.5755 14.3668 16.5711 14.3705 16.5677 14.3749C16.5643 14.3794 16.5619 14.3845 16.5606 14.39C16.5593 14.3955 16.5592 14.4012 16.5604 14.4067C16.5615 14.4122 16.5638 14.4174 16.5671 14.422C16.5704 14.4265 16.5746 14.4303 16.5795 14.4331C16.7626 14.575 16.9914 14.6394 17.2264 14.6131C17.2535 14.6092 17.2818 14.6108 17.3083 14.6178C17.3348 14.6249 17.3596 14.6372 17.3812 14.6541C17.4028 14.6709 17.4207 14.692 17.434 14.716C17.4472 14.74 17.4555 14.7665 17.4582 14.7937C17.4626 14.8351 17.4544 14.8774 17.4346 14.914C17.4149 14.9506 17.3846 14.9803 17.3476 14.9994C17.2984 14.9754 17.2432 14.9662 17.1889 14.9731H17.1864C17.1318 14.979 17.0778 14.9798 17.0245 14.9756C16.8687 14.9624 16.72 14.9044 16.5964 14.8088L16.5932 14.8069L15.9989 14.3444C15.9907 14.3397 15.9811 14.3381 15.9718 14.3399C15.9625 14.3417 15.9542 14.3468 15.9484 14.3542C15.9426 14.3617 15.9396 14.3709 15.94 14.3804C15.9404 14.3898 15.9442 14.3988 15.9507 14.4056L16.5482 14.8706C16.732 15.013 16.9642 15.0777 17.1951 15.0506H17.1976C17.243 15.0475 17.2884 15.0568 17.3289 15.0775C17.3562 15.0935 17.3794 15.1158 17.3965 15.1425C17.4135 15.1693 17.424 15.1997 17.427 15.2313V15.2331C17.4337 15.2825 17.4218 15.3327 17.3934 15.3737C17.3651 15.4148 17.3225 15.4438 17.2739 15.455C17.253 15.3905 17.2095 15.3356 17.1514 15.3006C17.0947 15.2664 17.0286 15.2511 16.9626 15.2569C16.7515 15.2813 16.5393 15.2221 16.3714 15.0919L15.6026 14.4944C15.5945 14.4879 15.5841 14.4849 15.5738 14.4861C15.5635 14.4873 15.5541 14.4925 15.5476 14.5006C15.5411 14.5087 15.5382 14.5191 15.5393 14.5294C15.5405 14.5397 15.5457 14.5492 15.5539 14.5556L15.5601 14.5619L16.3289 15.16C16.5126 15.3019 16.7414 15.3663 16.9764 15.3406H16.9776C17.0242 15.3342 17.0716 15.3439 17.112 15.3681C17.1361 15.3828 17.1567 15.4027 17.1724 15.4262C17.188 15.4497 17.1984 15.4764 17.2026 15.5044L17.207 15.5381H17.2101C17.2164 15.6444 17.1351 15.74 17.0251 15.7494H17.0232C16.8974 15.7656 16.7739 15.7625 16.6526 15.74L16.6551 15.7162C16.6619 15.6404 16.6383 15.565 16.5896 15.5066C16.5408 15.4481 16.4709 15.4114 16.3951 15.4044C16.2386 15.3873 16.0896 15.3284 15.9639 15.2338L15.9495 15.2269L15.1901 14.6362C15.1862 14.6321 15.1815 14.6289 15.1762 14.6268C15.171 14.6247 15.1654 14.6237 15.1597 14.624C15.154 14.6242 15.1485 14.6257 15.1435 14.6283C15.1384 14.6309 15.134 14.6345 15.1305 14.639C15.127 14.6434 15.1245 14.6486 15.1232 14.6541C15.1219 14.6596 15.1218 14.6653 15.1229 14.6709C15.1239 14.6764 15.1262 14.6817 15.1295 14.6863C15.1328 14.6909 15.1371 14.6947 15.142 14.6975L15.9107 15.2956C16.0482 15.3987 16.2045 15.4631 16.3807 15.4825C16.4082 15.485 16.435 15.4929 16.4594 15.5058C16.4839 15.5186 16.5055 15.5362 16.5232 15.5575C16.5408 15.5787 16.5541 15.6032 16.5623 15.6296C16.5704 15.656 16.5733 15.6837 16.5707 15.7113C16.5641 15.7666 16.5361 15.8171 16.4926 15.8519C16.4491 15.8868 16.3937 15.9031 16.3382 15.8975C16.291 15.8933 16.2441 15.8864 16.1976 15.8769C16.1881 15.8751 16.1783 15.8768 16.17 15.8817C16.1617 15.8867 16.1555 15.8945 16.1526 15.9037C15.9611 15.8599 15.7812 15.7755 15.6251 15.6562L15.5301 15.5825C13.9395 14.3531 13.4007 13.9362 13.1251 13.705C13.0536 13.6456 12.9848 13.583 12.9189 13.5175L12.8357 13.435L12.8126 13.4119C12.693 13.2874 12.5882 13.1497 12.5001 13.0013V7.99062ZM7.38136 7.94063C7.42053 7.95896 7.46011 7.97563 7.50011 7.99062V13.0037C7.41203 13.1522 7.30718 13.2899 7.18761 13.4144L7.16448 13.4369L7.08073 13.5194C7.02261 13.5756 6.96261 13.6306 6.87511 13.7069C6.60261 13.9381 6.06136 14.3569 4.46261 15.5925L4.37823 15.6581C4.20145 15.796 3.99309 15.8878 3.77198 15.925C3.74841 15.9245 3.72483 15.9253 3.70136 15.9275C3.49761 15.9275 3.44948 15.8238 3.43886 15.7113C3.43381 15.6558 3.45089 15.6007 3.48637 15.5578C3.52185 15.515 3.57285 15.4879 3.62823 15.4825H3.62948C3.80511 15.4631 3.96198 15.3988 4.09823 15.2963L4.09886 15.2956L4.86761 14.6975C4.87163 14.6943 4.87499 14.6904 4.8775 14.686C4.88 14.6815 4.88161 14.6766 4.88222 14.6715C4.88283 14.6664 4.88243 14.6613 4.88105 14.6564C4.87967 14.6514 4.87733 14.6468 4.87417 14.6428C4.87101 14.6388 4.86709 14.6354 4.86263 14.6329C4.85817 14.6304 4.85327 14.6288 4.84819 14.6282C4.84311 14.6276 4.83796 14.628 4.83304 14.6294C4.82811 14.6308 4.82351 14.6331 4.81948 14.6362L4.06011 15.2269L4.04511 15.2331C3.91975 15.3278 3.77122 15.3869 3.61511 15.4044C3.57546 15.4079 3.53696 15.4195 3.50206 15.4387C3.46716 15.4578 3.43661 15.484 3.41234 15.5155C3.38808 15.5471 3.37063 15.5833 3.3611 15.6219C3.35157 15.6606 3.35017 15.7008 3.35698 15.74C3.23473 15.7627 3.10966 15.7661 2.98636 15.75H2.98448C2.93203 15.7457 2.88334 15.7211 2.84878 15.6814C2.81423 15.6417 2.79654 15.59 2.79948 15.5375H2.80261L2.80698 15.5044C2.81132 15.4765 2.82168 15.45 2.83733 15.4266C2.85298 15.4031 2.87355 15.3834 2.89761 15.3687C2.93787 15.3443 2.98529 15.3344 3.03198 15.3406H3.03323C3.26823 15.3663 3.49698 15.3019 3.68011 15.16L4.44886 14.5619L4.45511 14.5556C4.45913 14.5525 4.46249 14.5485 4.465 14.5441C4.4675 14.5396 4.46911 14.5347 4.46972 14.5296C4.47033 14.5246 4.46993 14.5194 4.46855 14.5145C4.46717 14.5096 4.46483 14.505 4.46167 14.5009C4.45851 14.4969 4.45459 14.4936 4.45013 14.491C4.44567 14.4885 4.44077 14.4869 4.43569 14.4863C4.43061 14.4857 4.42546 14.4861 4.42054 14.4875C4.41561 14.4889 4.41101 14.4912 4.40698 14.4944L3.63823 15.0919C3.47031 15.2221 3.25806 15.2813 3.04698 15.2569C2.98102 15.2511 2.91493 15.2664 2.85823 15.3006C2.80012 15.3356 2.75661 15.3905 2.73573 15.455C2.68703 15.4439 2.64424 15.415 2.61578 15.3739C2.58733 15.3329 2.57527 15.2826 2.58198 15.2331V15.2313C2.58511 15.1996 2.59576 15.1691 2.61305 15.1423C2.63033 15.1156 2.65375 15.0934 2.68136 15.0775C2.72185 15.0568 2.76723 15.0475 2.81261 15.0506H2.81448C2.87407 15.0569 2.93303 15.0577 2.99136 15.0531C3.1626 15.0395 3.32606 14.9759 3.46136 14.87L4.05886 14.4056C4.06698 14.3992 4.07224 14.3899 4.07347 14.3796C4.0747 14.3694 4.0718 14.3591 4.06542 14.3509C4.05904 14.3428 4.04969 14.3376 4.03944 14.3363C4.02918 14.3351 4.01886 14.338 4.01073 14.3444L3.41636 14.8069L3.41323 14.8088C3.24554 14.9384 3.03381 14.9974 2.82323 14.9731H2.82073C2.76675 14.9732 2.71314 14.9821 2.66198 14.9994L2.62573 15.0244C2.58417 15.0006 2.55029 14.9655 2.52813 14.923C2.50597 14.8806 2.49646 14.8327 2.50073 14.785V14.7656C2.5096 14.7212 2.53067 14.6801 2.56158 14.647C2.59249 14.6139 2.63202 14.59 2.67573 14.5781C2.71028 14.5685 2.74622 14.5649 2.78198 14.5675L2.81448 14.5694L2.84386 14.5719C2.90511 14.574 2.96553 14.5694 3.02511 14.5581C3.04594 14.554 3.06678 14.5492 3.08761 14.5438C3.14594 14.5283 3.20157 14.5065 3.25448 14.4781H3.25823L3.28386 14.4637C3.30546 14.411 3.33182 14.3604 3.36261 14.3125L3.36886 14.3038C3.37928 14.2875 3.39073 14.2717 3.40323 14.2562L3.30323 14.2387H3.29698C3.2347 14.2296 3.17745 14.1993 3.1348 14.153C3.09214 14.1067 3.06666 14.0472 3.06261 13.9844C3.06003 13.9613 3.06003 13.9381 3.06261 13.915C3.06846 13.8788 3.08138 13.8442 3.10063 13.813C3.11988 13.7818 3.14509 13.7548 3.1748 13.7334C3.20452 13.7119 3.23817 13.6966 3.27383 13.6882C3.30949 13.6798 3.34645 13.6785 3.38261 13.6844H3.39136L3.49761 13.7019L3.57948 13.715L3.95448 13.7775C4.02511 13.7119 4.10386 13.6437 4.18261 13.575L4.18698 13.5713L4.26323 13.5044L4.56823 13.2481L4.63073 13.195L4.64573 13.1825C4.70573 13.1342 4.76553 13.0842 4.82511 13.0325L4.88136 12.985L4.91573 12.9562C5.42087 12.5997 5.82644 12.12 6.09386 11.5625C6.11011 11.5154 6.12782 11.47 6.14698 11.4262L6.15323 11.4125C6.21261 11.2937 6.24573 11.1625 6.25011 11.0294V10.625C6.24937 10.1246 6.34912 9.62918 6.54345 9.16806C6.73777 8.70695 7.0227 8.28956 7.38136 7.94063ZM7.93386 5.46375C7.81186 5.42461 7.70483 5.34893 7.62728 5.24694C7.54972 5.14496 7.50539 5.0216 7.50027 4.89358C7.49516 4.76555 7.52951 4.63905 7.59868 4.5312C7.66785 4.42336 7.7685 4.33937 7.88698 4.29062V4.21875L7.88261 4.09375C7.87655 3.97226 7.90503 3.85153 7.96476 3.74556C8.0245 3.63959 8.11303 3.55272 8.22011 3.495L8.24136 3.48688L8.26261 3.47813C8.48761 3.37687 8.66511 3.19313 8.75761 2.96438L8.79198 2.88375C8.79756 2.87001 8.80586 2.85753 8.81638 2.84708C8.8269 2.83663 8.83943 2.82841 8.85321 2.82292C8.86698 2.81744 8.88173 2.81479 8.89656 2.81515C8.91138 2.8155 8.92599 2.81886 8.93948 2.825C8.95702 2.83384 8.97222 2.84669 8.98386 2.8625C9.13182 3.07685 9.32969 3.252 9.56041 3.37286C9.79113 3.49371 10.0478 3.55665 10.3082 3.55625H11.6482C11.7232 3.55625 12.0982 3.5925 12.1207 4.11063L12.1132 4.29062C12.2322 4.33949 12.3333 4.42388 12.4025 4.53229C12.4718 4.6407 12.5059 4.76784 12.5002 4.89636C12.4946 5.02488 12.4494 5.14852 12.3708 5.2504C12.2923 5.35228 12.1842 5.42744 12.0614 5.46562C12.0169 5.93172 11.8103 6.36744 11.4776 6.69688C11.1007 7.06437 10.5764 7.27687 9.99761 7.27687C9.44011 7.27687 8.93386 7.08 8.56011 6.73688C8.20279 6.40329 7.98001 5.9504 7.93386 5.46375ZM8.25386 7.29813C8.74822 7.6942 9.36417 7.90747 9.99761 7.90187C10.63 7.90725 11.245 7.69446 11.7389 7.29938C11.7847 7.32271 11.8301 7.34708 11.8751 7.3725V7.66187C11.8751 8.60687 11.0739 9.375 10.0889 9.375H9.90511C8.91886 9.375 8.11886 8.6125 8.12511 7.66875V7.36625C8.16761 7.34292 8.21073 7.32 8.25448 7.2975M15.2364 16.1462C15.4514 16.3131 15.6989 16.4338 15.9626 16.4994C15.7889 16.7957 15.5426 17.043 15.2469 17.2179C14.9513 17.3929 14.616 17.4897 14.2726 17.4994L13.827 15.71C13.7762 15.5071 13.6591 15.327 13.4942 15.1984C13.3293 15.0697 13.1261 14.9999 12.917 15H12.247L12.7114 14.1731C13.0026 14.4206 13.5464 14.8413 15.0682 16.0175L15.2364 16.1462ZM13.6045 17.5L13.7214 17.9256C13.7414 17.9902 13.7509 18.0567 13.7501 18.125C13.7452 18.2935 13.6744 18.4534 13.5528 18.5703C13.4313 18.6872 13.2687 18.7517 13.1001 18.75C13.0104 18.7511 12.9213 18.7337 12.8386 18.699C12.7558 18.6642 12.681 18.6129 12.6189 18.5481L11.8639 17.75C11.7407 17.6056 11.5655 17.5157 11.3764 17.5C11.2795 17.5 10.9951 17.5 10.6001 17.5056C10.0407 17.5106 9.26261 17.5169 8.48761 17.5212L8.48448 17.5225H6.28073C6.04323 17.5206 5.85761 17.5156 5.74511 17.5094C5.70447 17.512 5.66371 17.5067 5.62511 17.4937C5.29992 17.4685 4.9856 17.3652 4.70874 17.1928C4.43187 17.0204 4.2006 16.7838 4.03448 16.5031C4.29939 16.4378 4.54752 16.3172 4.76261 16.1494L4.93261 16.0175C5.63639 15.478 6.3364 14.9336 7.03261 14.3844L7.62761 15.4631C7.65457 15.5121 7.6942 15.553 7.74235 15.5815C7.7905 15.61 7.84542 15.625 7.90136 15.625H12.917C12.9868 15.6251 13.0545 15.6485 13.1095 15.6915C13.1644 15.7346 13.2034 15.7947 13.2201 15.8625L13.6282 17.5H13.6045ZM7.76261 18.1469L7.38386 18.5481C7.32171 18.6129 7.24694 18.6642 7.16416 18.699C7.08139 18.7337 6.99237 18.7511 6.90261 18.75C6.73718 18.7526 6.57711 18.6914 6.45562 18.5791C6.33412 18.4668 6.26053 18.312 6.25011 18.1469H7.76261Z" fill="black"/>
</svg>
